<svg width="26" height="26" viewBox="0 0 26 26" fill="none" xmlns="http://www.w3.org/2000/svg">
<g id="u:arrow-left">
<path id="Vector" d="M7.54379 11.5751H15.4576L12.0168 8.14806C11.8205 7.95191 11.7102 7.68588 11.7102 7.40848C11.7102 7.13108 11.8205 6.86504 12.0168 6.66889C12.2131 6.47274 12.4794 6.36255 12.7571 6.36255C13.0347 6.36255 13.301 6.47274 13.4974 6.66889L18.7106 11.8772C18.8056 11.9763 18.88 12.0931 18.9296 12.221C19.0339 12.4746 19.0339 12.759 18.9296 13.0126C18.88 13.1405 18.8056 13.2573 18.7106 13.3564L13.4974 18.5647C13.4004 18.6624 13.2851 18.7399 13.1581 18.7927C13.031 18.8456 12.8947 18.8729 12.7571 18.8729C12.6194 18.8729 12.4832 18.8456 12.3561 18.7927C12.229 18.7399 12.1137 18.6624 12.0168 18.5647C11.9191 18.4679 11.8415 18.3527 11.7886 18.2257C11.7356 18.0988 11.7084 17.9627 11.7084 17.8251C11.7084 17.6876 11.7356 17.5515 11.7886 17.4245C11.8415 17.2976 11.9191 17.1824 12.0168 17.0856L15.4576 13.6585H7.54379C7.26726 13.6585 7.00206 13.5487 6.80652 13.3534C6.61099 13.158 6.50114 12.8931 6.50114 12.6168C6.50114 12.3405 6.61099 12.0756 6.80652 11.8802C7.00206 11.6849 7.26726 11.5751 7.54379 11.5751Z" fill="#DFEBE9"/>
</g>
</svg>
