<svg width="18" height="18" viewBox="0 0 18 18" fill="none" xmlns="http://www.w3.org/2000/svg">
<path id="Vector" d="M16.6154 3.58792H13.0933C12.9267 2.58366 12.4246 1.67293 11.6757 1.01646C10.9267 0.359999 9.97911 0 9 0C8.02089 0 7.07325 0.359999 6.32433 1.01646C5.5754 1.67293 5.07333 2.58366 4.90673 3.58792L1.38462 3.58792C1.01739 3.58792 0.66521 3.73976 0.405544 4.01004C0.145879 4.28032 0 4.6469 0 5.02913L0 16.5588C0 16.941 0.145879 17.3076 0.405544 17.5779C0.66521 17.8482 1.01739 18 1.38462 18H16.6154C16.9826 18 17.3348 17.8482 17.5945 17.5779C17.8541 17.3076 18 16.941 18 16.5588V5.02913C18 4.6469 17.8541 4.28032 17.5945 4.01004C17.3348 3.73976 16.9826 3.58792 16.6154 3.58792ZM6.23077 7.19094C6.23077 7.38206 6.15783 7.56535 6.028 7.70048C5.89816 7.83562 5.72207 7.91155 5.53846 7.91155C5.35485 7.91155 5.17876 7.83562 5.04893 7.70048C4.91909 7.56535 4.84615 7.38206 4.84615 7.19094V5.74973C4.84615 5.55862 4.91909 5.37533 5.04893 5.24019C5.17876 5.10505 5.35485 5.02913 5.53846 5.02913C5.72207 5.02913 5.89816 5.10505 6.028 5.24019C6.15783 5.37533 6.23077 5.55862 6.23077 5.74973V7.19094ZM6.31731 3.58792C6.46982 2.9679 6.81625 2.41835 7.30198 2.02591C7.78771 1.63347 8.38511 1.42046 9 1.42046C9.61489 1.42046 10.2123 1.63347 10.698 2.02591C11.1837 2.41835 11.5302 2.9679 11.6827 3.58792H6.31731ZM13.1538 7.19094C13.1538 7.38206 13.0809 7.56535 12.9511 7.70048C12.8212 7.83562 12.6452 7.91155 12.4615 7.91155C12.2779 7.91155 12.1018 7.83562 11.972 7.70048C11.8422 7.56535 11.7692 7.38206 11.7692 7.19094V5.74973C11.7692 5.55862 11.8422 5.37533 11.972 5.24019C12.1018 5.10505 12.2779 5.02913 12.4615 5.02913C12.6452 5.02913 12.8212 5.10505 12.9511 5.24019C13.0809 5.37533 13.1538 5.55862 13.1538 5.74973V7.19094Z" fill="#1E617A"/>
</svg>
