<svg width="18" height="18" viewBox="0 0 18 18" fill="none" xmlns="http://www.w3.org/2000/svg">
<path id="Vector" d="M10.8 9.81818H12.15V12.1255L14.346 13.2791L13.671 14.3427L10.8 12.8373V9.81818ZM14.4 5.72727L1.8 5.72727L1.8 14.7273H6.003C5.616 13.9827 5.4 13.1482 5.4 12.2727C5.4 10.7538 6.06375 9.29701 7.24523 8.22293C8.42671 7.14886 10.0291 6.54545 11.7 6.54545C12.663 6.54545 13.581 6.74182 14.4 7.09364V5.72727ZM1.8 16.3636C1.32261 16.3636 0.864773 16.1912 0.527208 15.8844C0.189642 15.5775 0 15.1613 0 14.7273L0 3.27273C0 2.36455 0.801 1.63636 1.8 1.63636L2.7 1.63636V0L4.5 0V1.63636L11.7 1.63636V0L13.5 0V1.63636L14.4 1.63636C14.8774 1.63636 15.3352 1.80877 15.6728 2.11564C16.0104 2.42252 16.2 2.83874 16.2 3.27273V8.26364C17.316 9.29455 18 10.71 18 12.2727C18 13.7917 17.3363 15.2484 16.1548 16.3225C14.9733 17.3966 13.3709 18 11.7 18C9.981 18 8.424 17.3782 7.29 16.3636H1.8ZM11.7 8.30455C10.5423 8.30455 9.43207 8.72262 8.61348 9.4668C7.79488 10.211 7.335 11.2203 7.335 12.2727C7.335 14.4655 9.288 16.2409 11.7 16.2409C12.2732 16.2409 12.8408 16.1383 13.3704 15.9388C13.9 15.7394 14.3812 15.4471 14.7865 15.0787C15.1918 14.7102 15.5134 14.2727 15.7327 13.7913C15.9521 13.3098 16.065 12.7938 16.065 12.2727C16.065 10.08 14.112 8.30455 11.7 8.30455Z" fill="#1E617A"/>
</svg>
