<svg width="15" height="15" viewBox="0 0 15 15" fill="none" xmlns="http://www.w3.org/2000/svg">
<path id="Vector" d="M1.5 13.5532C1.0875 13.5532 0.73425 13.4065 0.44025 13.113C0.14675 12.819 0 12.4657 0 12.0532L0 1.55322C0 1.14072 0.14675 0.787473 0.44025 0.493473C0.73425 0.199973 1.0875 0.0532227 1.5 0.0532227L12 0.0532227C12.4125 0.0532227 12.7657 0.199973 13.0597 0.493473C13.3533 0.787473 13.5 1.14072 13.5 1.55322L13.5 5.79072C13.2625 5.67822 13.0188 5.58747 12.7687 5.51847C12.5187 5.44997 12.2625 5.39697 12 5.35947V1.55322L1.5 1.55322L1.5 8.30322H4.65C4.7625 8.64072 4.95 8.93447 5.2125 9.18447C5.475 9.43447 5.76875 9.60947 6.09375 9.70947C6.05625 9.95947 6.03125 10.2125 6.01875 10.4685C6.00625 10.725 6.01875 10.9782 6.05625 11.2282C5.60625 11.1407 5.18425 10.9752 4.79025 10.7317C4.39675 10.4877 4.05 10.1782 3.75 9.80322H1.5L1.5 12.0532L6.24375 12.0532C6.33125 12.3282 6.43125 12.5907 6.54375 12.8407C6.65625 13.0907 6.79375 13.3282 6.95625 13.5532L1.5 13.5532ZM1.5 12.0532L6.24375 12.0532L1.5 12.0532ZM10.5187 14.3032L10.2938 13.1782C10.1438 13.1157 10.0033 13.0502 9.87225 12.9817C9.74075 12.9127 9.60625 12.8282 9.46875 12.7282L8.38125 13.0657L7.63125 11.7907L8.49375 11.0407C8.46875 10.8907 8.45625 10.7282 8.45625 10.5532C8.45625 10.3782 8.46875 10.2157 8.49375 10.0657L7.63125 9.31572L8.38125 8.04072L9.46875 8.37822C9.60625 8.27822 9.74075 8.19372 9.87225 8.12472C10.0033 8.05622 10.1438 7.99072 10.2938 7.92822L10.5187 6.80322H12.0187L12.2438 7.92822C12.3938 7.99072 12.5345 8.05622 12.666 8.12472C12.797 8.19372 12.9312 8.27822 13.0687 8.37822L14.1562 8.04072L14.9062 9.31572L14.0438 10.0657C14.0688 10.2157 14.0812 10.3782 14.0812 10.5532C14.0812 10.7282 14.0688 10.8907 14.0438 11.0407L14.9062 11.7907L14.1562 13.0657L13.0687 12.7282C12.9312 12.8282 12.797 12.9127 12.666 12.9817C12.5345 13.0502 12.3938 13.1157 12.2438 13.1782L12.0187 14.3032H10.5187ZM11.2687 12.0532C11.6812 12.0532 12.0345 11.9065 12.3285 11.613C12.622 11.319 12.7687 10.9657 12.7687 10.5532C12.7687 10.1407 12.622 9.78747 12.3285 9.49347C12.0345 9.19997 11.6812 9.05322 11.2687 9.05322C10.8562 9.05322 10.5033 9.19997 10.2098 9.49347C9.91575 9.78747 9.76875 10.1407 9.76875 10.5532C9.76875 10.9657 9.91575 11.319 10.2098 11.613C10.5033 11.9065 10.8562 12.0532 11.2687 12.0532Z" fill="#DFEBE9"/>
</svg>
