<svg width="21" height="21" viewBox="0 0 21 21" fill="none" xmlns="http://www.w3.org/2000/svg">
<g id="Category">
<g id="Iconly/Bold/Category">
<g id="Category_2">
<path id="Vector" d="M6.60668 11.2329C7.7825 11.2329 8.72482 12.1844 8.72482 13.3686V16.2114C8.72482 17.3872 7.7825 18.3462 6.60668 18.3462H3.78806C2.62058 18.3462 1.66992 17.3872 1.66992 16.2114L1.66992 13.3686C1.66992 12.1844 2.62058 11.2329 3.78806 11.2329L6.60668 11.2329ZM16.2301 11.2329C17.3976 11.2329 18.3482 12.1844 18.3482 13.3686V16.2114C18.3482 17.3872 17.3976 18.3462 16.2301 18.3462H13.4115C12.2357 18.3462 11.2933 17.3872 11.2933 16.2114L11.2933 13.3686C11.2933 12.1844 12.2357 11.2329 13.4115 11.2329H16.2301ZM6.60668 1.66821C7.7825 1.66821 8.72482 2.62721 8.72482 3.80386V6.64667C8.72482 7.83082 7.7825 8.78148 6.60668 8.78148H3.78806C2.62058 8.78148 1.66992 7.83082 1.66992 6.64667L1.66992 3.80386C1.66992 2.62721 2.62058 1.66821 3.78806 1.66821L6.60668 1.66821ZM16.2301 1.66821C17.3976 1.66821 18.3482 2.62721 18.3482 3.80386V6.64667C18.3482 7.83082 17.3976 8.78148 16.2301 8.78148H13.4115C12.2357 8.78148 11.2933 7.83082 11.2933 6.64667L11.2933 3.80386C11.2933 2.62721 12.2357 1.66821 13.4115 1.66821L16.2301 1.66821Z" fill="none"/>
</g>
</g>
</g>
</svg>
