<svg width="18" height="18" viewBox="0 0 18 18" fill="none" xmlns="http://www.w3.org/2000/svg">
<path id="Vector" d="M0.138462 7.89293C0.751143 7.07054 1.56869 6.4231 2.50962 6.01516C1.99482 5.54421 1.63436 4.9287 1.47551 4.24934C1.31667 3.56997 1.36685 2.85845 1.61947 2.2081C1.8721 1.55775 2.31537 0.998913 2.89117 0.604877C3.46698 0.210842 4.14842 0 4.84615 0C5.54389 0 6.22533 0.210842 6.80113 0.604877C7.37694 0.998913 7.82021 1.55775 8.07284 2.2081C8.32546 2.85845 8.37564 3.56997 8.21679 4.24934C8.05795 4.9287 7.69749 5.54421 7.18269 6.01516C7.86073 6.30999 8.47722 6.72976 9 7.25258C9.52278 6.72976 10.1393 6.30999 10.8173 6.01516C10.3025 5.54421 9.94205 4.9287 9.78321 4.24934C9.62436 3.56997 9.67454 2.85845 9.92716 2.2081C10.1798 1.55775 10.6231 0.998913 11.1989 0.604877C11.7747 0.210842 12.4561 0 13.1538 0C13.8516 0 14.533 0.210842 15.1088 0.604877C15.6846 0.998913 16.1279 1.55775 16.3805 2.2081C16.6332 2.85845 16.6833 3.56997 16.5245 4.24934C16.3656 4.9287 16.0052 5.54421 15.4904 6.01516C16.4313 6.4231 17.2489 7.07054 17.8615 7.89293C17.9161 7.96565 17.9558 8.04841 17.9783 8.13648C18.0009 8.22454 18.0059 8.31619 17.993 8.40619C17.9802 8.49618 17.9497 8.58276 17.9034 8.66099C17.8571 8.73921 17.7958 8.80755 17.7231 8.8621C17.5754 8.97004 17.3914 9.01599 17.2103 8.99012C17.0292 8.96425 16.8654 8.86862 16.7538 8.72364C16.3347 8.1648 15.7912 7.71121 15.1663 7.3988C14.5415 7.0864 13.8524 6.92375 13.1538 6.92375C12.4552 6.92375 11.7662 7.0864 11.1414 7.3988C10.5165 7.71121 9.97301 8.1648 9.55385 8.72364L9.50192 8.77556H9.49327L9.45 8.81883L9.42404 8.83614C9.42404 8.83843 9.42313 8.84063 9.4215 8.84226C9.41988 8.84388 9.41768 8.84479 9.41538 8.84479L9.38942 8.8621L9.36346 8.8794L9.32019 8.90536H9.30288L9.15577 8.95728H8.87019L8.80096 8.93998H8.775L8.69711 8.90536L8.67115 8.88806C8.64328 8.87381 8.61715 8.85638 8.59327 8.83614H8.58461L8.55865 8.81018H8.54135C8.52404 8.79287 8.50673 8.78422 8.49808 8.76691H8.48942L8.4375 8.70634C8.0175 8.14964 7.47386 7.69816 6.84948 7.38755C6.22509 7.07694 5.53705 6.91569 4.83967 6.91653C4.14228 6.91737 3.45463 7.08028 2.831 7.39239C2.20736 7.7045 1.66481 8.15728 1.24615 8.71499C1.18258 8.80256 1.09936 8.87401 1.00318 8.9236C0.906993 8.97319 0.800521 8.99955 0.692308 9.00055C0.542203 9.0025 0.395835 8.95372 0.276923 8.8621C0.204191 8.80755 0.142916 8.73921 0.096595 8.66099C0.0502743 8.58276 0.0198157 8.49618 0.00695838 8.40619C-0.00589897 8.31619 -0.000903392 8.22454 0.02166 8.13648C0.0442234 8.04841 0.0839128 7.96565 0.138462 7.89293ZM15.4904 15.0146C16.0052 14.5437 16.3656 13.9282 16.5245 13.2488C16.6833 12.5694 16.6332 11.8579 16.3805 11.2076C16.1279 10.5572 15.6846 9.99836 15.1088 9.60433C14.533 9.21029 13.8516 8.99945 13.1538 8.99945C12.4561 8.99945 11.7747 9.21029 11.1989 9.60433C10.6231 9.99836 10.1798 10.5572 9.92716 11.2076C9.67454 11.8579 9.62436 12.5694 9.78321 13.2488C9.94205 13.9282 10.3025 14.5437 10.8173 15.0146C10.1393 15.3094 9.52278 15.7292 9 16.252C8.47722 15.7292 7.86073 15.3094 7.18269 15.0146C7.69749 14.5437 8.05795 13.9282 8.21679 13.2488C8.37564 12.5694 8.32546 11.8579 8.07284 11.2076C7.82021 10.5572 7.37694 9.99836 6.80113 9.60433C6.22533 9.21029 5.54389 8.99945 4.84615 8.99945C4.14842 8.99945 3.46698 9.21029 2.89117 9.60433C2.31537 9.99836 1.8721 10.5572 1.61947 11.2076C1.36685 11.8579 1.31667 12.5694 1.47551 13.2488C1.63436 13.9282 1.99482 14.5437 2.50962 15.0146C1.56869 15.4226 0.751143 16.07 0.138462 16.8924C0.06132 16.9952 0.014344 17.1175 0.00279773 17.2456C-0.00874856 17.3736 0.0155909 17.5023 0.0730891 17.6173C0.130587 17.7323 0.218972 17.829 0.32834 17.8966C0.437708 17.9642 0.563738 18 0.692308 18H17.3077C17.4363 18 17.5623 17.9642 17.6717 17.8966C17.781 17.829 17.8694 17.7323 17.9269 17.6173C17.9844 17.5023 18.0087 17.3736 17.9972 17.2456C17.9857 17.1175 17.9387 16.9952 17.8615 16.8924C17.2489 16.07 16.4313 15.4226 15.4904 15.0146Z" fill="#252B42"/>
</svg>
