<svg width="16" height="15" viewBox="0 0 16 15" fill="none" xmlns="http://www.w3.org/2000/svg">
<path id="Vector" d="M5.475 15L5.175 12.6C5.0125 12.5375 4.8595 12.4625 4.716 12.375C4.572 12.2875 4.43125 12.1938 4.29375 12.0938L2.0625 13.0312L0 9.46875L1.93125 8.00625C1.91875 7.91875 1.9125 7.83425 1.9125 7.75275V7.2465C1.9125 7.1655 1.91875 7.08125 1.93125 6.99375L0 5.53125L2.0625 1.96875L4.29375 2.90625C4.43125 2.80625 4.575 2.7125 4.725 2.625C4.875 2.5375 5.025 2.4625 5.175 2.4L5.475 0L9.6 0L9.9 2.4C10.0625 2.4625 10.2157 2.5375 10.3597 2.625C10.5033 2.7125 10.6438 2.80625 10.7813 2.90625L13.0125 1.96875L15.075 5.53125L13.1437 6.99375C13.1562 7.08125 13.1625 7.1655 13.1625 7.2465V7.75275C13.1625 7.83425 13.15 7.91875 13.125 8.00625L15.0562 9.46875L12.9937 13.0313L10.7813 12.0938C10.6438 12.1938 10.5 12.2875 10.35 12.375C10.2 12.4625 10.05 12.5375 9.9 12.6L9.6 15H5.475ZM7.575 10.125C8.3 10.125 8.91875 9.86875 9.43125 9.35625C9.94375 8.84375 10.2 8.225 10.2 7.5C10.2 6.775 9.94375 6.15625 9.43125 5.64375C8.91875 5.13125 8.3 4.875 7.575 4.875C6.8375 4.875 6.2155 5.13125 5.709 5.64375C5.203 6.15625 4.95 6.775 4.95 7.5C4.95 8.225 5.203 8.84375 5.709 9.35625C6.2155 9.86875 6.8375 10.125 7.575 10.125Z" fill="#DFEBE9"/>
</svg>
